# xmcd CD database file
#
# Track frame offsets:
#	150
#	20362
#	32958
#	49275
#	71437
#	88537
#	105525
#	124892
#	138168
#	153450
#	175395
#
# Disc length: 2512 seconds
#
# Revision: 5
# Processed by: cddbd v1.5.2PL0 Copyright (c) Steve Scherf et al.
# Submitted via: CDex 1.51
#
DISCID=9109ce0b
DTITLE=Annihilator - Set The World On Fire
DYEAR=1993
DGENRE=Heavy Metal
TTITLE0=Set The World On Fire
TTITLE1=No Zone
TTITLE2=Bats In The Belfry
TTITLE3=Snake In The Grass
TTITLE4=Phoenix Rising
TTITLE5=Knight Jumps Queen
TTITLE6=Sounds Good To Me
TTITLE7=The Edge
TTITLE8=Don't Bother Me
TTITLE9=Brain Dance
TTITLE10=Hell Bent For Leather
EXTD=YEAR: 1993
EXTT0=
EXTT1=
EXTT2=
EXTT3=
EXTT4=
EXTT5=
EXTT6=
EXTT7=
EXTT8=
EXTT9=
EXTT10=
PLAYORDER=
